<?xml version="1.0" encoding="UTF-8" standalone="no"?>
<!DOCTYPE svg PUBLIC "-//W3C//DTD SVG 1.1//EN"
 "http://www.w3.org/Graphics/SVG/1.1/DTD/svg11.dtd">
<!-- Generated by graphviz version 2.40.1 (20161225.0304)
 -->
<!-- Title: %3 Pages: 1 -->
<svg width="1030pt" height="456pt"
 viewBox="0.00 0.00 1029.78 455.78" xmlns="http://www.w3.org/2000/svg" xmlns:xlink="http://www.w3.org/1999/xlink">
<g id="graph0" class="graph" transform="scale(1 1) rotate(0) translate(4 451.7762)">
<title>%3</title>
<polygon fill="#ffffff" stroke="transparent" points="-4,4 -4,-451.7762 1025.7832,-451.7762 1025.7832,4 -4,4"/>
<!-- &#45;3575095604644719201 -->
<g id="node1" class="node">
<title>&#45;3575095604644719201</title>
<polygon fill="none" stroke="#000000" points="537.8916,-447.7762 483.8916,-447.7762 483.8916,-411.7762 537.8916,-411.7762 537.8916,-447.7762"/>
</g>
<!-- 5880105578991764644 -->
<g id="node2" class="node">
<title>5880105578991764644</title>
<ellipse fill="none" stroke="#000000" cx="510.8916" cy="-336.7797" rx="38.9931" ry="38.9931"/>
<text text-anchor="middle" x="510.8916" y="-333.0797" font-family="Times,serif" font-size="14.00" fill="#000000">best_set</text>
</g>
<!-- 5880105578991764644&#45;&gt;&#45;3575095604644719201 -->
<g id="edge1" class="edge">
<title>5880105578991764644&#45;&gt;&#45;3575095604644719201</title>
<path fill="none" stroke="#000000" d="M510.8916,-375.9491C510.8916,-384.4126 510.8916,-393.2084 510.8916,-401.1766"/>
<polygon fill="#000000" stroke="#000000" points="507.3917,-401.4204 510.8916,-411.4205 514.3917,-401.4205 507.3917,-401.4204"/>
</g>
<!-- &#45;5511528635020311839 -->
<g id="node3" class="node">
<title>&#45;5511528635020311839</title>
<polygon fill="none" stroke="#000000" points="257.8916,-261.7832 203.8916,-261.7832 203.8916,-225.7832 257.8916,-225.7832 257.8916,-261.7832"/>
</g>
<!-- &#45;5511528635020311839&#45;&gt;5880105578991764644 -->
<g id="edge2" class="edge">
<title>&#45;5511528635020311839&#45;&gt;5880105578991764644</title>
<path fill="none" stroke="#000000" d="M257.9936,-252.7846C305.6078,-268.5987 404.8105,-301.547 463.8278,-321.1484"/>
<polygon fill="#000000" stroke="#000000" points="463.0558,-324.5799 473.6493,-324.4104 465.2622,-317.9367 463.0558,-324.5799"/>
</g>
<!-- &#45;3102536434830287546 -->
<g id="node4" class="node">
<title>&#45;3102536434830287546</title>
<polygon fill="none" stroke="#000000" points="397.8916,-261.7832 343.8916,-261.7832 343.8916,-225.7832 397.8916,-225.7832 397.8916,-261.7832"/>
</g>
<!-- &#45;3102536434830287546&#45;&gt;5880105578991764644 -->
<g id="edge3" class="edge">
<title>&#45;3102536434830287546&#45;&gt;5880105578991764644</title>
<path fill="none" stroke="#000000" d="M398.2173,-261.9346C418.5389,-275.4334 446.6197,-294.0864 469.6638,-309.3937"/>
<polygon fill="#000000" stroke="#000000" points="467.9561,-312.4611 478.2224,-315.0789 471.8293,-306.6303 467.9561,-312.4611"/>
</g>
<!-- &#45;2132449555960371058 -->
<g id="node5" class="node">
<title>&#45;2132449555960371058</title>
<polygon fill="none" stroke="#000000" points="537.8916,-261.7832 483.8916,-261.7832 483.8916,-225.7832 537.8916,-225.7832 537.8916,-261.7832"/>
</g>
<!-- &#45;2132449555960371058&#45;&gt;5880105578991764644 -->
<g id="edge4" class="edge">
<title>&#45;2132449555960371058&#45;&gt;5880105578991764644</title>
<path fill="none" stroke="#000000" d="M510.8916,-262.1563C510.8916,-269.5405 510.8916,-278.4406 510.8916,-287.4823"/>
<polygon fill="#000000" stroke="#000000" points="507.3917,-287.6776 510.8916,-297.6777 514.3917,-287.6777 507.3917,-287.6776"/>
</g>
<!-- 4958228280257157615 -->
<g id="node6" class="node">
<title>4958228280257157615</title>
<polygon fill="none" stroke="#000000" points="677.8916,-261.7832 623.8916,-261.7832 623.8916,-225.7832 677.8916,-225.7832 677.8916,-261.7832"/>
</g>
<!-- 4958228280257157615&#45;&gt;5880105578991764644 -->
<g id="edge5" class="edge">
<title>4958228280257157615&#45;&gt;5880105578991764644</title>
<path fill="none" stroke="#000000" d="M623.5658,-261.9346C603.2443,-275.4334 575.1635,-294.0864 552.1193,-309.3937"/>
<polygon fill="#000000" stroke="#000000" points="549.9539,-306.6303 543.5607,-315.0789 553.8271,-312.4611 549.9539,-306.6303"/>
</g>
<!-- 6377887480095240976 -->
<g id="node7" class="node">
<title>6377887480095240976</title>
<polygon fill="none" stroke="#000000" points="851.8916,-261.7832 797.8916,-261.7832 797.8916,-225.7832 851.8916,-225.7832 851.8916,-261.7832"/>
</g>
<!-- 6377887480095240976&#45;&gt;5880105578991764644 -->
<g id="edge6" class="edge">
<title>6377887480095240976&#45;&gt;5880105578991764644</title>
<path fill="none" stroke="#000000" d="M797.8483,-251.7925C744.5043,-267.5912 625.1225,-302.9482 558.3719,-322.7176"/>
<polygon fill="#000000" stroke="#000000" points="557.1186,-319.4384 548.5242,-325.6342 559.1064,-326.1503 557.1186,-319.4384"/>
</g>
<!-- 517908914127200628 -->
<g id="node8" class="node">
<title>517908914127200628</title>
<ellipse fill="none" stroke="#000000" cx="718.8916" cy="-94.8916" rx="94.7833" ry="94.7833"/>
<text text-anchor="middle" x="718.8916" y="-91.1916" font-family="Times,serif" font-size="14.00" fill="#000000">unique_tiles_all_offsets</text>
</g>
<!-- 517908914127200628&#45;&gt;4958228280257157615 -->
<g id="edge7" class="edge">
<title>517908914127200628&#45;&gt;4958228280257157615</title>
<path fill="none" stroke="#000000" d="M679.3357,-181.5024C673.5346,-194.2044 667.9553,-206.4208 663.2981,-216.618"/>
<polygon fill="#000000" stroke="#000000" points="660.1091,-215.1758 659.1384,-225.726 666.4765,-218.0838 660.1091,-215.1758"/>
</g>
<!-- 1512705428255904765 -->
<g id="node9" class="node">
<title>1512705428255904765</title>
<ellipse fill="none" stroke="#000000" cx="510.8916" cy="-94.8916" rx="94.7833" ry="94.7833"/>
<text text-anchor="middle" x="510.8916" y="-91.1916" font-family="Times,serif" font-size="14.00" fill="#000000">unique_tiles_all_offsets</text>
</g>
<!-- 1512705428255904765&#45;&gt;&#45;2132449555960371058 -->
<g id="edge8" class="edge">
<title>1512705428255904765&#45;&gt;&#45;2132449555960371058</title>
<path fill="none" stroke="#000000" d="M510.8916,-190.0299C510.8916,-199.1719 510.8916,-207.8617 510.8916,-215.4853"/>
<polygon fill="#000000" stroke="#000000" points="507.3917,-215.4888 510.8916,-225.4888 514.3917,-215.4889 507.3917,-215.4888"/>
</g>
<!-- 7915945106676047013 -->
<g id="node10" class="node">
<title>7915945106676047013</title>
<ellipse fill="none" stroke="#000000" cx="302.8916" cy="-94.8916" rx="94.7833" ry="94.7833"/>
<text text-anchor="middle" x="302.8916" y="-91.1916" font-family="Times,serif" font-size="14.00" fill="#000000">unique_tiles_all_offsets</text>
</g>
<!-- 7915945106676047013&#45;&gt;&#45;3102536434830287546 -->
<g id="edge9" class="edge">
<title>7915945106676047013&#45;&gt;&#45;3102536434830287546</title>
<path fill="none" stroke="#000000" d="M342.4475,-181.5024C348.2486,-194.2044 353.8279,-206.4208 358.485,-216.618"/>
<polygon fill="#000000" stroke="#000000" points="355.3067,-218.0838 362.6447,-225.726 361.674,-215.1758 355.3067,-218.0838"/>
</g>
<!-- &#45;8109075388697957269 -->
<g id="node11" class="node">
<title>&#45;8109075388697957269</title>
<ellipse fill="none" stroke="#000000" cx="926.8916" cy="-94.8916" rx="94.7833" ry="94.7833"/>
<text text-anchor="middle" x="926.8916" y="-91.1916" font-family="Times,serif" font-size="14.00" fill="#000000">unique_tiles_all_offsets</text>
</g>
<!-- &#45;8109075388697957269&#45;&gt;6377887480095240976 -->
<g id="edge10" class="edge">
<title>&#45;8109075388697957269&#45;&gt;6377887480095240976</title>
<path fill="none" stroke="#000000" d="M873.2032,-173.2616C862.3895,-189.0466 851.7374,-204.5957 843.1988,-217.0597"/>
<polygon fill="#000000" stroke="#000000" points="840.1471,-215.3215 837.3828,-225.5494 845.9219,-219.2777 840.1471,-215.3215"/>
</g>
<!-- 983642057772624082 -->
<g id="node12" class="node">
<title>983642057772624082</title>
<ellipse fill="none" stroke="#000000" cx="94.8916" cy="-94.8916" rx="94.7833" ry="94.7833"/>
<text text-anchor="middle" x="94.8916" y="-91.1916" font-family="Times,serif" font-size="14.00" fill="#000000">unique_tiles_all_offsets</text>
</g>
<!-- 983642057772624082&#45;&gt;&#45;5511528635020311839 -->
<g id="edge11" class="edge">
<title>983642057772624082&#45;&gt;&#45;5511528635020311839</title>
<path fill="none" stroke="#000000" d="M158.9092,-164.9775C176.232,-183.9424 193.9006,-203.2858 207.3976,-218.0622"/>
<polygon fill="#000000" stroke="#000000" points="205.1097,-220.7471 214.4381,-225.7701 210.2782,-216.0261 205.1097,-220.7471"/>
</g>
</g>
</svg>
